# xmcd
#
# Track frame offsets: 
#        150
#        15659
#        34395
#        47648
#        62969
#        77417
#        91745
#        107448
#        127003
#        145032
#        160822
#        176116
#        191694
#        206955
#        227850
#        242615
#
# Disc length: 3529 seconds
#
# Revision: 0
# Processed by: cddbd v1.5.2PL0 Copyright (c) Steve Scherf et al.
# Submitted via: ExactAudioCopy v1.0b1
#
DISCID=d80dc710
DTITLE=B.B. and The Blues Shacks - Come Along
DYEAR=2013
DGENRE=Modern Electric Blues, Contemporary Blues
TTITLE0=True Love In Vain
TTITLE1=Love Like Cash
TTITLE2=Come Along With Me
TTITLE3=If I Should Ever Lose Your Love
TTITLE4=Get My Stuff Together
TTITLE5=Will You Be There
TTITLE6=Fool Me
TTITLE7=Don't Take Your Time
TTITLE8=The Door
TTITLE9=Anything You Do
TTITLE10=Doesn't Matter Anymore
TTITLE11=Wait In Line
TTITLE12=I Don't Get It
TTITLE13=Whatever You Do
TTITLE14=You Can Always Depend On Me
TTITLE15=Raise Your Voice
EXTD=
EXTT0=
EXTT1=
EXTT2=
EXTT3=
EXTT4=
EXTT5=
EXTT6=
EXTT7=
EXTT8=
EXTT9=
EXTT10=
EXTT11=
EXTT12=
EXTT13=
EXTT14=
EXTT15=
PLAYORDER=
